<svg xmlns="http://www.w3.org/2000/svg" viewBox="0 0 128 128" width="128" height="128" role="img" aria-label="StateMachine"><title>StateMachine</title><defs><linearGradient id="bg" x1="0%" y1="0%" x2="92%" y2="100%"><stop offset="0%" stop-color="#5FC8F5"/><stop offset="100%" stop-color="#265FC6"/></linearGradient><filter id="lift" x="-30%" y="-30%" width="160%" height="160%"><feDropShadow dx="0" dy="3" stdDeviation="3.5" flood-color="#0B3F66" flood-opacity="0.30"/></filter></defs><rect width="128" height="128" rx="28" fill="url(#bg)"/><g transform="translate(64,64)" filter="url(#lift)"><g stroke="#ffffff" stroke-width="4.5" fill="none"><path d="M-22,-22 A34,34 0 0 1 22,-20"/><path d="M30,-8 A34,34 0 0 1 6,28"/><path d="M-10,30 A34,34 0 0 1 -30,-6"/></g><polygon points="22,-26 33,-18 20,-12" fill="#ffffff"/><polygon points="12,30 0,28 8,18" fill="#ffffff"/><polygon points="-32,-12 -28,-24 -20,-15" fill="#ffffff"/><circle cx="-26" cy="-22" r="8" fill="#FFC24D"/><circle cx="28" cy="-10" r="8" fill="#3FD8B4"/><circle cx="-2" cy="30" r="8" fill="#F87FAC"/></g></svg>