<svg xmlns="http://www.w3.org/2000/svg" viewBox="0 0 128 128" width="128" height="128" role="img" aria-label="AuditLog"><title>AuditLog</title><defs><linearGradient id="bg" x1="0%" y1="0%" x2="92%" y2="100%"><stop offset="0%" stop-color="#5FC8F5"/><stop offset="100%" stop-color="#265FC6"/></linearGradient><filter id="lift" x="-30%" y="-30%" width="160%" height="160%"><feDropShadow dx="0" dy="3" stdDeviation="3.5" flood-color="#0B3F66" flood-opacity="0.30"/></filter></defs><rect width="128" height="128" rx="28" fill="url(#bg)"/><g transform="translate(64,64)" filter="url(#lift)"><path d="M-38,-38 a6,6 0 0 1 6,-6 H12 L28,-32 V34 a6,6 0 0 1 -6,6 H-32 a6,6 0 0 1 -6,-6 Z" fill="#ffffff"/><polygon points="12,-44 12,-32 28,-32" fill="#D9DEE8"/><line x1="-28" y1="-22" x2="12" y2="-22" stroke="#CBD8E6" stroke-width="4.2" stroke-linecap="round"/><line x1="-28" y1="-10" x2="18" y2="-10" stroke="#CBD8E6" stroke-width="4.2" stroke-linecap="round"/><line x1="-28" y1="2" x2="8" y2="2" stroke="#CBD8E6" stroke-width="4.2" stroke-linecap="round"/><circle cx="24" cy="24" r="15" fill="#265FC6"/><circle cx="22" cy="22" r="6" fill="none" stroke="#fff" stroke-width="3"/><line x1="27" y1="27" x2="33" y2="33" stroke="#fff" stroke-width="3" stroke-linecap="round"/></g></svg>